<svg width="558" height="804" viewBox="0 0 558 804" fill="none" xmlns="http://www.w3.org/2000/svg">
<path d="M224.777 11.9115H9.98633V794.448H548.014V11.9115H332.382" stroke="white" stroke-width="3"/>
<path d="M31.4234 2L2 35.0383V770.378L30.1624 802H527.417L556 769.906V34.0944L527.417 2H31.4234Z" stroke="white" stroke-width="3"/>
<path d="M334 11.4396C334 40.6341 309.376 64.3009 279 64.3009C248.624 64.3009 224 40.6341 224 11.4396" stroke="white" stroke-width="3"/>
<path d="M254.676 18.9912C254.234 20.9871 254 23.0694 254 25.2102C254 40.0221 265.193 52.0296 279 52.0296C292.807 52.0296 304 40.0221 304 25.2102C304 23.0694 303.766 20.9871 303.324 18.9912" stroke="white" stroke-width="3"/>
<path d="M303 18.9912C303 27.8538 292.255 35.0384 279 35.0384C265.745 35.0384 255 27.8538 255 18.9912" stroke="white" stroke-width="3"/>
<ellipse cx="278.5" cy="18.5191" rx="6.5" ry="6.13569" fill="white"/>
</svg>
